<svg width="12" height="12" viewBox="0 0 12 12" fill="none" xmlns="http://www.w3.org/2000/svg">
<rect width="12" height="12" fill="#E5E5E5"/>
<g id="HEADER_FOR_AUTHORIZED_USER">
<rect id="back__COLOR:primary-header" x="-1188" y="-31" width="1280" height="74" fill="#073042"/>
<g id="profile">
<g id="profile_2">
<g id="back__COLOR:primary" filter="url(#filter0_d_891_3857)">
<rect x="-78" y="-10" width="100" height="32" rx="16" fill="#2BE080"/>
</g>
<rect id="back__COLOR:special-1" x="-7" y="-7" width="26" height="26" rx="13" fill="#F9F9F9"/>
<path id="icon__COLOR:icon-main" fill-rule="evenodd" clip-rule="evenodd" d="M7.42973 7.96781C8.79156 7.40572 9.74998 6.06478 9.74998 4.5C9.74998 2.42893 8.07105 0.75 5.99998 0.75C3.92891 0.75 2.24998 2.42893 2.24998 4.5C2.24998 6.06473 3.20833 7.40563 4.57009 7.96775C3.17543 8.19993 1.89251 8.76594 0.808228 9.58058L2.18978 11.4194C3.25107 10.6221 4.56862 10.15 5.99973 10.15C7.43085 10.15 8.7484 10.6221 9.80969 11.4194L11.1912 9.58058C10.1071 8.76601 8.82425 8.20003 7.42973 7.96781Z" fill="black"/>
</g>
</g>
</g>
<defs>
<filter id="filter0_d_891_3857" x="-92" y="-21" width="128" height="60" filterUnits="userSpaceOnUse" color-interpolation-filters="sRGB">
<feFlood flood-opacity="0" result="BackgroundImageFix"/>
<feColorMatrix in="SourceAlpha" type="matrix" values="0 0 0 0 0 0 0 0 0 0 0 0 0 0 0 0 0 0 127 0" result="hardAlpha"/>
<feOffset dy="3"/>
<feGaussianBlur stdDeviation="7"/>
<feColorMatrix type="matrix" values="0 0 0 0 0 0 0 0 0 0 0 0 0 0 0 0 0 0 0.08 0"/>
<feBlend mode="normal" in2="BackgroundImageFix" result="effect1_dropShadow_891_3857"/>
<feBlend mode="normal" in="SourceGraphic" in2="effect1_dropShadow_891_3857" result="shape"/>
</filter>
</defs>
</svg>
